<?xml version="1.0" encoding="UTF-8" standalone="no"?>
<!-- Created with Inkscape (http://www.inkscape.org/) -->

<svg
   xmlns:dc="http://purl.org/dc/elements/1.1/"
   xmlns:cc="http://creativecommons.org/ns#"
   xmlns:rdf="http://www.w3.org/1999/02/22-rdf-syntax-ns#"
   xmlns:svg="http://www.w3.org/2000/svg"
   xmlns="http://www.w3.org/2000/svg"
   xmlns:sodipodi="http://sodipodi.sourceforge.net/DTD/sodipodi-0.dtd"
   xmlns:inkscape="http://www.inkscape.org/namespaces/inkscape"
   width="700."
   height="800."
   id="svg3539"
   version="1.1"
   inkscape:version="0.48.2 r9819"
   sodipodi:docname="micromirror">
  <defs
     id="defs3541" />
  <sodipodi:namedview
     id="base"
     pagecolor="#ffffff"
     bordercolor="#666666"
     borderopacity="1.0"
     inkscape:pageopacity="0.0"
     inkscape:pageshadow="2"
     inkscape:zoom="0.98994949"
     inkscape:cx="443.46775"
     inkscape:cy="800.17878"
     inkscape:document-units="px"
     inkscape:current-layer="layer1"
     showgrid="true"
     inkscape:window-width="2560"
     inkscape:window-height="1378"
     inkscape:window-x="2552"
     inkscape:window-y="-8"
     inkscape:window-maximized="1">
    <inkscape:grid
       type="xygrid"
       id="grid3547" />
  </sodipodi:namedview>
  <metadata
     id="metadata3544">
    <rdf:RDF>
      <cc:Work
         rdf:about="">
        <dc:format>image/svg+xml</dc:format>
        <dc:type
           rdf:resource="http://purl.org/dc/dcmitype/StillImage" />
        <dc:title></dc:title>
      </cc:Work>
    </rdf:RDF>
  </metadata>
  <g
     inkscape:label="Layer 1"
     inkscape:groupmode="layer"
     id="layer1">
    <path
       inkscape:connector-curvature="0"
       style="fill:#00ff00;fill-opacity:1;fill-rule:evenodd;stroke:#000000;stroke-width:1.0350709px;stroke-linecap:round;stroke-linejoin:round;stroke-opacity:1;stroke-dasharray:none"
       d="m 248.75918,50.289597 -227.715599,0 0,-30.933003 227.715599,0 z"
       id="path3021" />
    <path
       inkscape:connector-curvature="0"
       style="fill:#ff0000;fill-opacity:1;fill-rule:evenodd;stroke:#000000;stroke-width:1.0350709px;stroke-linecap:round;stroke-linejoin:round;stroke-opacity:1;stroke-dasharray:none"
       d="m 248.75918,101.84465 -227.715599,0 0,-30.933103 227.715599,0 z"
       id="path3023" />
    <path
       inkscape:connector-curvature="0"
       style="fill:#ffff00;fill-opacity:1;fill-rule:evenodd;stroke:#000000;stroke-width:1.0350709px;stroke-linecap:round;stroke-linejoin:round;stroke-opacity:1;stroke-dasharray:none"
       d="m 26.218981,39.978594 0,-15.4665 217.364899,0 0,15.4665 -15.5261,0 0,10.311003 -31.0521,0 0,5.1555 36.2275,0 0,-10.311003 10.3507,0 0,30.932953 -10.3507,0 0,-10.311 -36.2275,0 0,5.1555 31.0521,0 0,10.311 15.5261,0 0,15.4666 -217.364899,0 0,-15.4666 15.526,0 0,-10.311 31.0521,0 0,-5.1555 -36.2274,0 0,10.311 -10.3507,0 0,-30.932953 10.3507,0 0,10.311003 36.2274,0 0,-5.1555 -31.0521,0 0,-10.311003 -15.526,0 0,-15.4665 z"
       id="path3025" />
    <ellipse
       d="m 262.90803,87.128143 c 0,2.56258 -2.08537,4.639961 -4.65782,4.639961 -2.57244,0 -4.65782,-2.077381 -4.65782,-4.639961 0,-2.562579 2.08538,-4.63996 4.65782,-4.63996 2.57245,0 4.65782,2.077381 4.65782,4.63996 z"
       sodipodi:ry="4.6399603"
       sodipodi:rx="4.6578193"
       sodipodi:cy="87.128143"
       sodipodi:cx="258.25021"
       style="fill:none;stroke:#000000;stroke-width:1.0350709px;stroke-linecap:round;stroke-linejoin:round;stroke-opacity:1;stroke-dasharray:none"
       cx="258.25021"
       cy="87.128143"
       rx="4.6578193"
       ry="4.6399603"
       id="ellipse3039"
       transform="translate(0.34218097,-1.2655058)" />
    <path
       inkscape:connector-curvature="0"
       style="fill:none;stroke:#000000;stroke-width:1.0350709px;stroke-linecap:round;stroke-linejoin:round;stroke-opacity:1;stroke-dasharray:none"
       d="m 248.75918,86.378047 10.3507,0"
       id="path3041" />
    <ellipse
       d="m 262.90803,61.35059 c 0,2.562579 -2.08537,4.63996 -4.65782,4.63996 -2.57244,0 -4.65782,-2.077381 -4.65782,-4.63996 0,-2.56258 2.08538,-4.639961 4.65782,-4.639961 2.57245,0 4.65782,2.077381 4.65782,4.639961 z"
       sodipodi:ry="4.6399603"
       sodipodi:rx="4.6578193"
       sodipodi:cy="61.35059"
       sodipodi:cx="258.25021"
       style="fill:none;stroke:#000000;stroke-width:1.0350709px;stroke-linecap:round;stroke-linejoin:round;stroke-opacity:1;stroke-dasharray:none"
       cx="258.25021"
       cy="61.35059"
       rx="4.6578193"
       ry="4.6399603"
       id="ellipse3043"
       transform="translate(0.34218097,-1.2655058)" />
    <path
       inkscape:connector-curvature="0"
       style="fill:none;stroke:#000000;stroke-width:1.0350709px;stroke-linecap:round;stroke-linejoin:round;stroke-opacity:1;stroke-dasharray:none"
       d="m 243.58388,60.600547 15.526,0"
       id="path3045" />
    <ellipse
       d="m 262.90803,35.573032 c 0,2.56258 -2.08537,4.639961 -4.65782,4.639961 -2.57244,0 -4.65782,-2.077381 -4.65782,-4.639961 0,-2.562579 2.08538,-4.63996 4.65782,-4.63996 2.57245,0 4.65782,2.077381 4.65782,4.63996 z"
       sodipodi:ry="4.6399603"
       sodipodi:rx="4.6578193"
       sodipodi:cy="35.573032"
       sodipodi:cx="258.25021"
       style="fill:none;stroke:#000000;stroke-width:1.0350709px;stroke-linecap:round;stroke-linejoin:round;stroke-opacity:1;stroke-dasharray:none"
       cx="258.25021"
       cy="35.573032"
       rx="4.6578193"
       ry="4.6399603"
       id="ellipse3047"
       transform="translate(0.34218097,-1.2655058)" />
    <path
       inkscape:connector-curvature="0"
       style="fill:none;stroke:#000000;stroke-width:1.0350709px;stroke-linecap:round;stroke-linejoin:round;stroke-opacity:1;stroke-dasharray:none"
       d="m 248.75918,34.823094 10.3507,0"
       id="path3049" />
    <ellipse
       d="m 14.490993,81.972633 c 0,2.56258 -2.085377,4.639961 -4.6578192,4.639961 -2.5724426,0 -4.6578193,-2.077381 -4.6578193,-4.639961 0,-2.562579 2.0853767,-4.63996 4.6578193,-4.63996 2.5724422,0 4.6578192,2.077381 4.6578192,4.63996 z"
       sodipodi:ry="4.6399603"
       sodipodi:rx="4.6578193"
       sodipodi:cy="81.972633"
       sodipodi:cx="9.8331738"
       style="fill:none;stroke:#000000;stroke-width:1.0350709px;stroke-linecap:round;stroke-linejoin:round;stroke-opacity:1;stroke-dasharray:none"
       cx="9.8331738"
       cy="81.972633"
       rx="4.6578193"
       ry="4.6399603"
       id="ellipse3051"
       transform="translate(0.34218097,-1.2655058)" />
    <path
       inkscape:connector-curvature="0"
       style="fill:none;stroke:#000000;stroke-width:1.0350709px;stroke-linecap:round;stroke-linejoin:round;stroke-opacity:1;stroke-dasharray:none"
       d="m 21.043581,81.222547 -10.3507,0"
       id="path3053" />
    <ellipse
       d="m 14.490993,61.35059 c 0,2.562579 -2.085377,4.63996 -4.6578192,4.63996 -2.5724426,0 -4.6578193,-2.077381 -4.6578193,-4.63996 0,-2.56258 2.0853767,-4.639961 4.6578193,-4.639961 2.5724422,0 4.6578192,2.077381 4.6578192,4.639961 z"
       sodipodi:ry="4.6399603"
       sodipodi:rx="4.6578193"
       sodipodi:cy="61.35059"
       sodipodi:cx="9.8331738"
       style="fill:none;stroke:#000000;stroke-width:1.0350709px;stroke-linecap:round;stroke-linejoin:round;stroke-opacity:1;stroke-dasharray:none"
       cx="9.8331738"
       cy="61.35059"
       rx="4.6578193"
       ry="4.6399603"
       id="ellipse3055"
       transform="translate(0.34218097,-1.2655058)" />
    <path
       inkscape:connector-curvature="0"
       style="fill:none;stroke:#000000;stroke-width:1.0350709px;stroke-linecap:round;stroke-linejoin:round;stroke-opacity:1;stroke-dasharray:none"
       d="m 26.218981,60.600547 -15.5261,0"
       id="path3057" />
    <ellipse
       d="m 14.490993,35.573032 c 0,2.56258 -2.085377,4.639961 -4.6578192,4.639961 -2.5724426,0 -4.6578193,-2.077381 -4.6578193,-4.639961 0,-2.562579 2.0853767,-4.63996 4.6578193,-4.63996 2.5724422,0 4.6578192,2.077381 4.6578192,4.63996 z"
       sodipodi:ry="4.6399603"
       sodipodi:rx="4.6578193"
       sodipodi:cy="35.573032"
       sodipodi:cx="9.8331738"
       style="fill:none;stroke:#000000;stroke-width:1.0350709px;stroke-linecap:round;stroke-linejoin:round;stroke-opacity:1;stroke-dasharray:none"
       cx="9.8331738"
       cy="35.573032"
       rx="4.6578193"
       ry="4.6399603"
       id="ellipse3059"
       transform="translate(0.34218097,-1.2655058)" />
    <path
       inkscape:connector-curvature="0"
       style="fill:none;stroke:#000000;stroke-width:1.0350709px;stroke-linecap:round;stroke-linejoin:round;stroke-opacity:1;stroke-dasharray:none"
       d="m 21.043581,34.823094 -10.3507,0"
       id="path3061" />
  </g>
</svg>
